<svg xmlns="http://www.w3.org/2000/svg" viewBox="0 0 578 158"><path fill="#fbfbfb" stroke="#fbfbfb" d="m66 42.832-4.5 1.723-.277 15.353-.276 15.353 3.276-.855c1.802-.47 6.765-.866 11.028-.88l7.751-.026-.001-15.633C83 42.5 82.962 42.223 80.75 41.63c-3.983-1.067-10.132-.566-14.75 1.202m23-.937-2.5.695v30.624l8.5.265c4.675.146 9.513.6 10.75 1.01l2.25.744V44.395l-4.75-1.702c-4.874-1.747-9.839-2.025-14.25-.798m186.923 10.028c-1.608 1.608-2.923 3.603-2.923 4.435 0 8.507 11.738 12.605 16.988 5.93 6.944-8.828-6.036-18.394-14.065-10.365m88.532-.468c-6.739 6.738 1.534 17.277 10.612 13.517 5.992-2.482 7.414-8.645 3.01-13.049-3.89-3.89-9.991-4.1-13.622-.468m72.468.468c-4.524 4.524-3.619 9.632 2.245 12.664C445.299 67.758 453 63.69 453 57.28c0-7.937-10.124-11.31-16.077-5.357m-283.549 6.546c-.328.854-.43 9.536-.227 19.292.354 16.952.492 17.989 3.122 23.36 9.528 19.461 42.96 16.713 48.715-4.003.553-1.99 1.007-11.831 1.01-21.868L206 57h-16v17.532c0 20.193-.793 23.503-6.074 25.344-4.139 1.443-9.249.528-11.611-2.077-1.579-1.742-1.88-4.494-2.315-21.151l-.5-19.148-7.765-.292c-6.283-.237-7.879.004-8.361 1.261M295 57.517c0 1.282 15.358 36.482 15.911 36.468.852-.022 8.112-17.176 8.1-19.138-.006-.91-1.517-5.185-3.357-9.5l-3.345-7.847-8.655-.289c-4.76-.159-8.654-.021-8.654.306m35.655 26.81c-6.41 15.029-11.655 27.629-11.655 28 0 .37 3.523.673 7.829.673h7.828l11.672-27.25c6.42-14.988 11.672-27.587 11.672-28-.001-.413-3.531-.75-7.846-.75h-7.845l-11.655 27.327M237.25 70.973c-3.495 1.586-4.25 1.671-4.25.478 0-1.139-1.612-1.451-7.5-1.451H218v43H232.841l.33-12.975c.38-14.993 1.556-17.425 8.424-17.425 5.754 0 6.405 1.736 6.405 17.091V113h16l-.006-13.75c-.003-7.562-.47-15.424-1.038-17.469-3.011-10.843-14.753-15.78-25.706-10.808m161.043-.39c-10.11 3.737-13.543 13.946-7.043 20.946 2.868 3.089 4.307 3.704 12.25 5.236 6.562 1.265 9 2.141 9 3.235 0 2.781-12.451 2.497-19.619-.448-1.566-.643-1.862-.159-5.547 9.067-.757 1.894 7.751 4.576 16.166 5.095 17.138 1.058 28.4-8.313 23.17-19.28-1.979-4.15-6.022-6.306-15.656-8.348-5.282-1.119-7.579-2.066-7.8-3.216-.583-3.022 7.302-3.182 16.523-.334 1.948.601 2.497.083 4.25-4.006 1.107-2.583 2.013-5.01 2.013-5.394 0-3.19-20.799-5.107-27.707-2.553m77.495-.448c-18.392 5.182-21.018 30.614-4.179 40.482 21.545 12.626 47.447-11.312 34.086-31.502-5.399-8.157-18.677-12.145-29.907-8.98M537.5 71c-4.692 2.392-4.5 2.371-4.5.5 0-1.2-1.5-1.5-7.5-1.5H518v43h16v-13c0-15.811 1.125-17.829 9.5-17.043 3.855.362 4.5 2.76 4.5 16.734V113h16V97.712c0-13.866-.209-15.703-2.25-19.75-4.099-8.129-15.527-11.409-24.25-6.962M275 91.5V113h16V70h-16v21.5m88 0V113h16V70h-16v21.5m73 0V113h16V70h-16v21.5m44.229-8.831c-5.34 2.149-5.099 15.632.316 17.71C487.389 103.005 493 99.005 493 91.5c0-7.503-5.912-11.591-12.771-8.831M22.224 103.25l.276 15.25h12l.276-15.25.276-15.25H21.948l.276 15.25M43.5 90.856l-5 .644-.281 11.631-.28 11.63 13.78 3.29c24.125 5.759 25.991 5.581 48.551-4.633 13.819-6.256 14.73-6.84 14.73-9.436 0-4.343-2.14-4.267-16.286.58-8.79 3.011-14.386 4.401-16.714 4.151-3.39-.365-3.37-.382.628-.545 4.809-.196 6.644-1.931 6.194-5.858-.321-2.804-.343-2.811-9.322-3.327-8.245-.475-9.541-.845-15.452-4.417-6.897-4.167-11.099-4.926-20.548-3.71" fill-rule="evenodd"/><path fill="#ae80f4" stroke="#ae80f4" d="M65.25 43.47 62 44.903v15.156c0 14.039.129 15.102 1.75 14.44 4.935-2.018 9.223-2.66 14.006-2.098l5.296.623-.276-15.262L82.5 42.5l-7-.232c-4.38-.145-8.217.305-10.25 1.202m23-.808c-.921.372-1.25 4.409-1.25 15.349v14.844l5.397-.556c3.662-.378 6.933-.034 10.178 1.072 2.63.896 4.926 1.629 5.103 1.629.177 0 .322-6.773.322-15.051V44.898l-3.468-1.449c-3.288-1.374-13.593-1.872-16.282-.787m190.15 7.754c-3.385 1.487-4.4 3.238-4.4 7.593 0 5.884 9.91 9.373 14.886 5.241 7.53-6.252-1.186-16.919-10.486-12.834m89.6-.756c-9.427 3.734-6.945 15.34 3.28 15.34 10.619 0 12.193-14.191 1.72-15.497-1.925-.24-4.175-.169-5 .157m71.465.292c-5.181 2.1-6.405 8.354-2.457 12.556 3.279 3.491 10.065 3.51 13.537.037 6.608-6.607-1.924-16.305-11.08-12.593M295.714 57.75c-.222.413 3.083 8.822 7.346 18.688l7.75 17.938 3.022-6.666c5.839-12.877 5.785-12.16 1.655-21.96L311.8 57h-7.841c-4.313 0-8.023.337-8.245.75m46.31 1.204c-.778 1.455-18.668 43.033-22.735 52.84-.418 1.009 1.192 1.23 7.293 1l7.829-.294 11.68-27.198c6.423-14.959 11.431-27.447 11.127-27.75-1.65-1.65-14.179-.494-15.194 1.402M154.175 77.75c.363 22.084 1.275 25.536 8.066 30.532 10.119 7.446 26.643 7.149 35.512-.638 6.54-5.742 7.57-9.694 8.057-30.894l.431-18.75H191l-.024 15.25c-.036 23.06-1.993 27.75-11.58 27.75C170.434 101 169 97.257 169 73.875V58h-15.15l.325 19.75m85.45-7.293c-2.132.766-4.359 1.877-4.95 2.468C233.031 74.569 232 74.212 232 72c0-1.81-.667-2-7-2h-7v43h15V99.955C233 84.96 234.368 82 241.3 82c6.168 0 7.15 2.292 7.548 17.604l.348 13.396h13.936l-.316-16.75c-.296-15.67-.466-16.96-2.645-20.015-4.174-5.852-13.245-8.403-20.546-5.778m161.875-.585c-13.464 3.562-18.075 16.195-8.5 23.287 1.82 1.348 15.986 4.819 19.75 4.84.137 0 .25.865.25 1.922 0 3.536-12.502 3.557-19.089.031-1.145-.613-2.165-.965-2.267-.783-5.487 9.856-5.172 10.938 3.873 13.294 14.3 3.724 27.341-.092 31.106-9.104 3.086-7.384-2.134-14.318-12.313-16.356-9.767-1.955-11.658-2.548-12.071-3.785-1.114-3.344 10.9-3.894 17.882-.817.973.429 1.836.192 2.159-.594a637.1 637.1 0 0 1 2.159-5.096l1.62-3.788-3.527-1.474c-4.195-1.753-16.797-2.698-21.032-1.577m76 .002c-24.362 6.427-21.78 39.962 3.367 43.733 21.99 3.298 36.982-21.511 22.33-36.949-5.57-5.869-17.364-8.983-25.697-6.784m59.75 1.58c-4.04 2.31-4.25 2.334-4.25.488 0-1.75-.741-1.942-7.5-1.942H518v43h14.794l.353-12.295c.398-13.855 1.602-17.052 6.86-18.206 7.162-1.574 8.993 2.423 8.993 19.626V113h15.172l-.336-16.25c-.307-14.868-.531-16.563-2.624-19.929-4.652-7.482-15.869-9.994-23.962-5.367M275 91.5V113h15V70h-15v21.5m89 0V113h15V70h-15v21.5m72 0V113h15V70h-15v21.5m46.27-9.723c-5.927.948-8.51 11.622-4.02 16.612 4.917 5.466 13.629 2.967 15.088-4.327 1.511-7.555-3.798-13.448-11.068-12.285M22 103v15h12V88H22v15m27.5-12.532c-.55.206-3.138.663-5.75 1.015l-4.75.64v22.534l15.924 3.672c22.015 5.075 22.799 4.973 47.076-6.157 11.081-5.08 12.5-6.011 12.5-8.201 0-3.744-2.495-3.529-17.458 1.503C83.883 109.899 77.017 110.95 74 109c-1.076-.696.054-1.002 4-1.084 7.786-.163 10.44-1.085 10.827-3.762.592-4.103-1.418-5.154-9.86-5.154-7.218 0-8.295-.287-14.712-3.924-6.428-3.642-12.373-5.499-14.755-4.608" fill-rule="evenodd"/><path fill="#76579c" stroke="#76579c" d="M440.501 50.091c-6.021 1.745-7.656 9.068-2.866 12.836 8.225 6.47 20.001-2.754 13.115-10.272-2.658-2.902-6.108-3.765-10.249-2.564m-164.327 2.223c-6.835 7.276 4.21 16.892 12.191 10.613 3.302-2.597 3.613-7.949.635-10.927-2.923-2.923-9.946-2.751-12.826.314m87.82.42c-4.242 5.393-.183 12.2 7.301 12.244 7.278.042 11.347-7.765 6.666-12.789-3.188-3.423-11.088-3.114-13.967.545m-67.556 6.974c4.539 11.884 14.133 33.119 14.701 32.541.406-.412 2.331-4.48 4.279-9.041l3.542-8.291-3.401-8.209-3.401-8.208-8.202-.292c-7.536-.269-8.147-.147-7.518 1.5m37.888 17.559a13048.427 13048.427 0 0 1-11.73 27.525l-3.556 8.291 7.55-.291 7.55-.292L345.082 87c6.018-14.025 11.192-26.288 11.497-27.25.495-1.559-.244-1.748-6.762-1.733l-7.317.017-8.174 19.233M402.5 69.93c-11.371 2.751-16.621 10.057-13.168 18.323 1.851 4.429 4.836 6.037 15.142 8.156 8.908 1.831 10.468 2.751 8.561 5.049-1.649 1.987-7.877 1.995-15.467.018-3.219-.839-5.966-1.401-6.105-1.25-.544.59-3.463 8.067-3.463 8.868 0 1.619 11.214 4.101 18.398 4.073 12.857-.051 20.602-5.134 20.602-13.521 0-7.498-3.7-10.514-16.058-13.091-8.271-1.724-9.871-2.73-7.977-5.013 1.677-2.02 9.915-2.037 14.721-.029 1.991.832 3.719 1.395 3.838 1.25.119-.145 1.158-2.418 2.308-5.052l2.09-4.79-2.711-1.061c-2.463-.965-14.293-2.893-16.711-2.725-.55.038-2.35.396-4 .795m77.5-.276c-18.776 3.295-25.975 25.381-12.212 37.465 15.524 13.63 41.201 3.896 41.201-15.619 0-13.961-13.963-24.483-28.989-21.846m57.669 1.71c-4.377 2.216-4.669 2.247-4.669.5 0-1.653-.849-1.864-7.5-1.864H518v43H532.841l.33-13.089C533.537 85.339 535.18 82 541.983 82c5.667 0 7.017 3.489 7.017 18.135V113h15l-.044-14.25c-.059-19.233-1.81-23.899-10.456-27.869-5.419-2.489-10.252-2.341-15.831.483M276 91.5V113h14V70h-14v21.5m88 0V113h15V70h-15v21.5m72 0V113h15V70h-15v21.5m45.357-9.508c-7.796 3.146-6.857 17.411 1.281 19.453 3.648.916 8.157-1.148 9.909-4.536 4.451-8.608-2.817-18.296-11.19-14.917" fill-rule="evenodd"/><path fill="#14121e" stroke="#14121e" d="M437.174 52.314c-7.03 7.483 4.558 17.121 12.437 10.344 3.531-3.037 3.741-8.145.445-10.814-3.361-2.721-10.115-2.475-12.882.47m103.883 17.922c-1.894.507-4.357 1.561-5.473 2.343C532.837 74.503 532 74.368 532 72c0-1.81-.667-2-7-2h-7v43h15v-12.066c0-15.106 1.685-18.849 8.5-18.887 6.36-.035 7.5 2.76 7.5 18.387V113h15l-.044-12.75c-.05-14.678-.926-20.391-3.696-24.108-3.951-5.301-12.101-7.808-19.203-5.906m-143.636 1.66C391.715 74.488 389 78.267 389 83.619c0 7.028 3.438 9.972 14.311 12.254 9.765 2.049 11.724 3.174 9.724 5.585-1.649 1.987-10.042 2.046-16.458.115l-4.74-1.426-1.851 4.132c-2.272 5.075-2.138 5.301 4.238 7.195 12.329 3.661 27.646.546 31.211-6.348 4.377-8.465-.522-15.705-11.935-17.638-9.632-1.631-11.641-2.482-11.312-4.793.288-2.024.857-2.193 7.312-2.168 3.85.015 8.175.386 9.612.824 2.39.729 2.752.445 4.268-3.343 2.025-5.061 1.796-5.474-3.806-6.885-6.906-1.739-17.43-1.372-22.153.773M437 91.5V113h14V70h-14v21.5m36.5-19.604c-17.673 8.182-16.083 34.418 2.422 39.963 21.37 6.402 39.872-12.259 30.292-30.551-5.283-10.088-21.301-14.696-32.714-9.412m6.865 10.273c-6.473 3.134-6.276 15.728.292 18.721 7.171 3.267 12.843-.88 12.843-9.39 0-8.5-6.02-12.776-13.135-9.331" fill-rule="evenodd"/></svg>